<svg width="246" height="31" viewBox="0 0 246 31" fill="none" xmlns="http://www.w3.org/2000/svg">
<path d="M11.348 4.512C16.076 4.512 19.592 5.592 21.896 7.752C24.2 9.888 25.352 12.96 25.352 16.968C25.352 19.584 24.788 21.876 23.66 23.844C22.532 25.788 20.888 27.3 18.728 28.38C16.592 29.46 14.024 30 11.024 30C10.64 30 10.136 29.988 9.512 29.964C8.888 29.94 8.24 29.928 7.568 29.928C6.896 29.904 6.296 29.892 5.768 29.892C4.712 29.892 3.668 29.904 2.636 29.928C1.628 29.928 0.823999 29.952 0.223999 30V29.28C0.991999 29.232 1.568 29.136 1.952 28.992C2.336 28.848 2.588 28.56 2.708 28.128C2.852 27.696 2.924 27.048 2.924 26.184V8.328C2.924 7.44 2.852 6.792 2.708 6.384C2.588 5.952 2.324 5.664 1.916 5.52C1.532 5.352 0.967999 5.256 0.223999 5.232V4.512C0.823999 4.536 1.628 4.572 2.636 4.62C3.668 4.644 4.688 4.644 5.696 4.62C6.56 4.596 7.532 4.572 8.612 4.548C9.716 4.524 10.628 4.512 11.348 4.512ZM11.312 5.16C10.208 5.16 9.488 5.364 9.152 5.772C8.816 6.18 8.648 7.008 8.648 8.256V26.256C8.648 27.504 8.816 28.332 9.152 28.74C9.512 29.148 10.244 29.352 11.348 29.352C13.364 29.352 14.948 28.884 16.1 27.948C17.276 26.988 18.116 25.596 18.62 23.772C19.124 21.948 19.376 19.728 19.376 17.112C19.376 14.424 19.1 12.204 18.548 10.452C18.02 8.676 17.168 7.356 15.992 6.492C14.816 5.604 13.256 5.16 11.312 5.16Z" fill="#B2B2B2"/>
<path d="M32.5351 30.252C31.4551 30.252 30.5551 30.048 29.8351 29.64C29.1151 29.232 28.5871 28.692 28.2511 28.02C27.9151 27.324 27.7471 26.568 27.7471 25.752C27.7471 24.72 27.9751 23.88 28.4311 23.232C28.9111 22.584 29.5231 22.056 30.2671 21.648C31.0111 21.24 31.7911 20.904 32.6071 20.64C33.4471 20.376 34.2391 20.124 34.9831 19.884C35.7511 19.62 36.3631 19.32 36.8191 18.984C37.2991 18.624 37.5391 18.168 37.5391 17.616V14.808C37.5391 14.184 37.4311 13.632 37.2151 13.152C37.0231 12.648 36.7111 12.264 36.2791 12C35.8711 11.736 35.3311 11.604 34.6591 11.604C34.1791 11.604 33.6991 11.676 33.2191 11.82C32.7391 11.94 32.3431 12.156 32.0311 12.468C32.7031 12.708 33.2191 13.08 33.5791 13.584C33.9631 14.064 34.1551 14.616 34.1551 15.24C34.1551 16.056 33.8671 16.704 33.2911 17.184C32.7391 17.664 32.0791 17.904 31.3111 17.904C30.4471 17.904 29.7871 17.64 29.3311 17.112C28.8991 16.56 28.6831 15.9 28.6831 15.132C28.6831 14.436 28.8511 13.86 29.1871 13.404C29.5471 12.948 30.0391 12.516 30.6631 12.108C31.3351 11.724 32.1391 11.424 33.0751 11.208C34.0351 10.992 35.0671 10.884 36.1711 10.884C37.2751 10.884 38.2711 11.004 39.1591 11.244C40.0471 11.46 40.7911 11.868 41.3911 12.468C41.9431 13.02 42.3031 13.704 42.4711 14.52C42.6391 15.312 42.7231 16.32 42.7231 17.544V27.336C42.7231 27.936 42.7831 28.356 42.9031 28.596C43.0231 28.812 43.2271 28.92 43.5151 28.92C43.7311 28.92 43.9351 28.86 44.1271 28.74C44.3431 28.62 44.5711 28.476 44.8111 28.308L45.1711 28.92C44.6671 29.352 44.0791 29.688 43.4071 29.928C42.7591 30.144 42.0271 30.252 41.2111 30.252C40.3231 30.252 39.6151 30.132 39.0871 29.892C38.5591 29.628 38.1751 29.28 37.9351 28.848C37.7191 28.416 37.6111 27.912 37.6111 27.336C37.0351 28.248 36.3391 28.968 35.5231 29.496C34.7071 30 33.7111 30.252 32.5351 30.252ZM35.0911 27.948C35.5711 27.948 36.0031 27.84 36.3871 27.624C36.7951 27.384 37.1791 27 37.5391 26.472V19.092C37.3231 19.452 37.0231 19.776 36.6391 20.064C36.2551 20.352 35.8471 20.652 35.4151 20.964C34.9831 21.252 34.5631 21.576 34.1551 21.936C33.7711 22.296 33.4591 22.74 33.2191 23.268C32.9791 23.796 32.8591 24.432 32.8591 25.176C32.8591 26.112 33.0631 26.808 33.4711 27.264C33.8791 27.72 34.4191 27.948 35.0911 27.948Z" fill="#B2B2B2"/>
<path d="M59.5919 10.884C60.5999 10.884 61.4159 11.016 62.0399 11.28C62.6879 11.52 63.1919 11.856 63.5519 12.288C63.9359 12.744 64.2119 13.332 64.3799 14.052C64.5719 14.772 64.6679 15.744 64.6679 16.968V26.652C64.6679 27.66 64.8359 28.344 65.1719 28.704C65.5319 29.064 66.1319 29.244 66.9719 29.244V30C66.5159 29.976 65.8319 29.952 64.9199 29.928C64.0079 29.88 63.1079 29.856 62.2199 29.856C61.3079 29.856 60.4079 29.88 59.5199 29.928C58.6559 29.952 57.9959 29.976 57.5399 30V29.244C58.2599 29.244 58.7639 29.064 59.0519 28.704C59.3399 28.344 59.4839 27.66 59.4839 26.652V15.456C59.4839 14.856 59.4239 14.34 59.3039 13.908C59.1839 13.452 58.9679 13.104 58.6559 12.864C58.3439 12.6 57.8759 12.468 57.2519 12.468C56.6039 12.468 56.0039 12.648 55.4519 13.008C54.9239 13.368 54.4919 13.872 54.1559 14.52C53.8439 15.144 53.6879 15.852 53.6879 16.644V26.652C53.6879 27.66 53.8319 28.344 54.1199 28.704C54.4319 29.064 54.9359 29.244 55.6319 29.244V30C55.1999 29.976 54.5639 29.952 53.7239 29.928C52.9079 29.88 52.0559 29.856 51.1679 29.856C50.2559 29.856 49.3199 29.88 48.3599 29.928C47.3999 29.952 46.6799 29.976 46.1999 30V29.244C47.0399 29.244 47.6279 29.064 47.9639 28.704C48.3239 28.344 48.5039 27.66 48.5039 26.652V15.312C48.5039 14.232 48.3359 13.44 47.9999 12.936C47.6879 12.408 47.0879 12.144 46.1999 12.144V11.388C46.9679 11.46 47.7119 11.496 48.4319 11.496C49.4399 11.496 50.3759 11.46 51.2399 11.388C52.1279 11.292 52.9439 11.16 53.6879 10.992V14.232C54.2879 13.008 55.1039 12.144 56.1359 11.64C57.1679 11.136 58.3199 10.884 59.5919 10.884Z" fill="#B2B2B2"/>
<path d="M72.9932 2.1C74.0012 2.1 74.7932 2.352 75.3692 2.856C75.9692 3.336 76.2692 4.008 76.2692 4.872C76.2692 5.736 75.9692 6.42 75.3692 6.924C74.7932 7.404 74.0012 7.644 72.9932 7.644C71.9852 7.644 71.1812 7.404 70.5812 6.924C70.0052 6.42 69.7172 5.736 69.7172 4.872C69.7172 4.008 70.0052 3.336 70.5812 2.856C71.1812 2.352 71.9852 2.1 72.9932 2.1ZM75.8012 10.992V26.652C75.8012 27.66 75.9692 28.344 76.3052 28.704C76.6652 29.064 77.2652 29.244 78.1052 29.244V30C77.6732 29.976 77.0012 29.952 76.0892 29.928C75.1772 29.88 74.2532 29.856 73.3172 29.856C72.3812 29.856 71.4332 29.88 70.4732 29.928C69.5132 29.952 68.7932 29.976 68.3132 30V29.244C69.1532 29.244 69.7412 29.064 70.0772 28.704C70.4372 28.344 70.6172 27.66 70.6172 26.652V15.312C70.6172 14.232 70.4492 13.44 70.1132 12.936C69.8012 12.408 69.2012 12.144 68.3132 12.144V11.388C69.0812 11.46 69.8252 11.496 70.5452 11.496C71.5532 11.496 72.4892 11.46 73.3532 11.388C74.2412 11.292 75.0572 11.16 75.8012 10.992Z" fill="#B2B2B2"/>
<path d="M88.9567 10.884C91.0687 10.884 92.7247 11.508 93.9247 12.756C95.1247 14.004 95.7247 16.044 95.7247 18.876H83.8807L83.8087 18.192H91.1887C91.2127 17.016 91.1407 15.936 90.9727 14.952C90.8047 13.944 90.5407 13.14 90.1807 12.54C89.8207 11.94 89.3407 11.64 88.7407 11.64C87.9007 11.64 87.1807 12.168 86.5807 13.224C86.0047 14.28 85.6567 16.032 85.5367 18.48L85.6447 18.696C85.6207 18.984 85.5967 19.284 85.5727 19.596C85.5727 19.908 85.5727 20.232 85.5727 20.568C85.5727 22.224 85.8007 23.568 86.2567 24.6C86.7367 25.632 87.3367 26.388 88.0567 26.868C88.7767 27.324 89.5087 27.552 90.2527 27.552C90.7567 27.552 91.2727 27.48 91.8007 27.336C92.3527 27.168 92.9047 26.88 93.4567 26.472C94.0087 26.04 94.5247 25.44 95.0047 24.672L95.6527 24.888C95.3647 25.8 94.9087 26.688 94.2847 27.552C93.6607 28.416 92.8687 29.124 91.9087 29.676C90.9487 30.228 89.7967 30.504 88.4527 30.504C86.8207 30.504 85.3807 30.156 84.1327 29.46C82.8847 28.764 81.9007 27.708 81.1807 26.292C80.4847 24.876 80.1367 23.076 80.1367 20.892C80.1367 18.66 80.5087 16.8 81.2527 15.312C82.0207 13.824 83.0647 12.72 84.3847 12C85.7287 11.256 87.2527 10.884 88.9567 10.884Z" fill="#B2B2B2"/>
<path d="M105.153 1.812V26.652C105.153 27.66 105.321 28.344 105.657 28.704C106.017 29.064 106.617 29.244 107.457 29.244V30C107.001 29.976 106.317 29.952 105.405 29.928C104.493 29.88 103.569 29.856 102.633 29.856C101.697 29.856 100.749 29.88 99.7893 29.928C98.8533 29.952 98.1453 29.976 97.6653 30V29.244C98.5053 29.244 99.0933 29.064 99.4293 28.704C99.7893 28.344 99.9693 27.66 99.9693 26.652V6.132C99.9693 5.052 99.8013 4.26 99.4653 3.756C99.1533 3.228 98.5533 2.964 97.6653 2.964V2.208C98.4333 2.28 99.1773 2.316 99.8973 2.316C100.881 2.316 101.817 2.28 102.705 2.208C103.593 2.112 104.409 1.98 105.153 1.812Z" fill="#B2B2B2"/>
<path d="M128.875 4.512V5.232C128.107 5.256 127.519 5.352 127.111 5.52C126.727 5.664 126.475 5.952 126.355 6.384C126.235 6.792 126.175 7.44 126.175 8.328V26.184C126.175 27.048 126.235 27.696 126.355 28.128C126.499 28.56 126.763 28.848 127.147 28.992C127.531 29.136 128.107 29.232 128.875 29.28V30C128.227 29.952 127.411 29.928 126.427 29.928C125.443 29.904 124.447 29.892 123.439 29.892C122.263 29.892 121.171 29.904 120.163 29.928C119.179 29.928 118.375 29.952 117.751 30V29.28C118.519 29.232 119.095 29.136 119.479 28.992C119.863 28.848 120.115 28.56 120.235 28.128C120.379 27.696 120.451 27.048 120.451 26.184V8.328C120.451 7.44 120.379 6.792 120.235 6.384C120.115 5.952 119.851 5.664 119.443 5.52C119.059 5.352 118.495 5.256 117.751 5.232V4.512C118.375 4.536 119.179 4.56 120.163 4.584C121.171 4.608 122.263 4.62 123.439 4.62C124.447 4.62 125.443 4.608 126.427 4.584C127.411 4.56 128.227 4.536 128.875 4.512Z" fill="#B2B2B2"/>
<path d="M143.995 10.884C145.003 10.884 145.819 11.016 146.443 11.28C147.067 11.52 147.57 11.856 147.954 12.288C148.338 12.744 148.615 13.344 148.783 14.088C148.951 14.808 149.035 15.768 149.035 16.968V26.652C149.035 27.66 149.191 28.344 149.503 28.704C149.815 29.064 150.354 29.244 151.122 29.244V30C150.69 29.976 150.031 29.952 149.143 29.928C148.279 29.88 147.427 29.856 146.587 29.856C145.723 29.856 144.871 29.88 144.031 29.928C143.191 29.952 142.554 29.976 142.122 30V29.244C142.77 29.244 143.214 29.064 143.454 28.704C143.718 28.344 143.85 27.66 143.85 26.652V15.456C143.85 14.856 143.802 14.34 143.706 13.908C143.61 13.452 143.418 13.104 143.13 12.864C142.866 12.6 142.458 12.468 141.906 12.468C141.282 12.468 140.706 12.648 140.178 13.008C139.65 13.368 139.218 13.872 138.882 14.52C138.57 15.144 138.415 15.852 138.415 16.644V26.652C138.415 27.66 138.547 28.344 138.811 28.704C139.075 29.064 139.519 29.244 140.143 29.244V30C139.759 29.976 139.158 29.952 138.342 29.928C137.55 29.88 136.735 29.856 135.895 29.856C134.983 29.856 134.047 29.88 133.087 29.928C132.127 29.952 131.406 29.976 130.926 30V29.244C131.766 29.244 132.355 29.064 132.691 28.704C133.051 28.344 133.23 27.66 133.23 26.652V15.312C133.23 14.232 133.063 13.44 132.727 12.936C132.415 12.408 131.814 12.144 130.926 12.144V11.388C131.694 11.46 132.438 11.496 133.158 11.496C134.166 11.496 135.102 11.46 135.966 11.388C136.854 11.292 137.671 11.16 138.415 10.992V14.232C138.991 13.032 139.771 12.18 140.755 11.676C141.739 11.148 142.819 10.884 143.995 10.884ZM154.831 10.884C155.839 10.884 156.655 11.016 157.279 11.28C157.903 11.52 158.406 11.856 158.79 12.288C159.174 12.744 159.45 13.344 159.618 14.088C159.787 14.808 159.87 15.768 159.87 16.968V26.652C159.87 27.66 160.038 28.344 160.374 28.704C160.734 29.064 161.335 29.244 162.174 29.244V30C161.718 29.976 161.034 29.952 160.122 29.928C159.21 29.88 158.311 29.856 157.423 29.856C156.559 29.856 155.707 29.88 154.867 29.928C154.027 29.952 153.39 29.976 152.958 30V29.244C153.606 29.244 154.05 29.064 154.29 28.704C154.554 28.344 154.686 27.66 154.686 26.652V15.456C154.686 14.856 154.627 14.34 154.507 13.908C154.411 13.452 154.206 13.104 153.895 12.864C153.607 12.6 153.151 12.468 152.527 12.468C151.903 12.468 151.327 12.66 150.799 13.044C150.271 13.428 149.839 13.944 149.503 14.592C149.191 15.24 149.023 15.96 148.999 16.752L148.818 14.556C149.466 13.116 150.318 12.144 151.374 11.64C152.454 11.136 153.607 10.884 154.831 10.884Z" fill="#B2B2B2"/>
<path d="M172.804 10.884C174.556 10.884 176.092 11.208 177.412 11.856C178.732 12.504 179.764 13.548 180.508 14.988C181.252 16.428 181.624 18.336 181.624 20.712C181.624 23.088 181.252 24.996 180.508 26.436C179.764 27.852 178.732 28.884 177.412 29.532C176.092 30.18 174.556 30.504 172.804 30.504C171.1 30.504 169.576 30.18 168.232 29.532C166.912 28.884 165.868 27.852 165.1 26.436C164.356 24.996 163.984 23.088 163.984 20.712C163.984 18.336 164.356 16.428 165.1 14.988C165.868 13.548 166.912 12.504 168.232 11.856C169.576 11.208 171.1 10.884 172.804 10.884ZM172.804 11.604C171.844 11.604 171.04 12.324 170.392 13.764C169.744 15.18 169.42 17.496 169.42 20.712C169.42 23.928 169.744 26.244 170.392 27.66C171.04 29.076 171.844 29.784 172.804 29.784C173.788 29.784 174.592 29.076 175.216 27.66C175.864 26.244 176.188 23.928 176.188 20.712C176.188 17.496 175.864 15.18 175.216 13.764C174.592 12.324 173.788 11.604 172.804 11.604ZM176.8 0.587998C177.208 0.899998 177.424 1.332 177.448 1.884C177.472 2.436 177.292 2.952 176.908 3.432C176.524 3.912 176.056 4.344 175.504 4.728C174.952 5.112 174.292 5.58 173.524 6.132C172.78 6.684 171.88 7.452 170.824 8.436L170.428 8.112C171.148 6.816 171.676 5.736 172.012 4.872C172.348 3.984 172.636 3.228 172.876 2.604C173.116 1.98 173.44 1.44 173.848 0.983997C174.208 0.503998 174.676 0.227998 175.252 0.155997C175.852 0.0599971 176.368 0.203997 176.8 0.587998Z" fill="#B2B2B2"/>
<path d="M200.803 11.388V12.108C200.347 12.228 199.915 12.516 199.507 12.972C199.099 13.404 198.703 14.148 198.319 15.204L193.063 30.072C192.679 30.048 192.283 30.036 191.875 30.036C191.491 30.036 191.107 30.048 190.723 30.072L184.315 14.16C183.931 13.224 183.547 12.66 183.163 12.468C182.803 12.252 182.491 12.144 182.227 12.144V11.388C182.995 11.436 183.787 11.484 184.603 11.532C185.443 11.556 186.355 11.568 187.339 11.568C188.083 11.568 188.863 11.556 189.679 11.532C190.519 11.484 191.299 11.436 192.019 11.388V12.144C191.515 12.144 191.059 12.168 190.651 12.216C190.267 12.264 190.003 12.42 189.859 12.684C189.715 12.948 189.739 13.416 189.931 14.088L194.143 25.248L193.783 25.752L196.627 17.868C197.083 16.572 197.275 15.516 197.203 14.7C197.131 13.86 196.867 13.236 196.411 12.828C195.955 12.396 195.343 12.156 194.575 12.108V11.388C194.935 11.412 195.319 11.436 195.727 11.46C196.159 11.46 196.567 11.472 196.951 11.496C197.359 11.496 197.719 11.496 198.031 11.496C198.511 11.496 199.015 11.484 199.543 11.46C200.071 11.436 200.491 11.412 200.803 11.388Z" fill="#B2B2B2"/>
<path d="M210.457 10.884C212.569 10.884 214.225 11.508 215.425 12.756C216.625 14.004 217.225 16.044 217.225 18.876H205.381L205.309 18.192H212.689C212.713 17.016 212.641 15.936 212.473 14.952C212.305 13.944 212.041 13.14 211.681 12.54C211.321 11.94 210.841 11.64 210.241 11.64C209.401 11.64 208.681 12.168 208.081 13.224C207.505 14.28 207.157 16.032 207.037 18.48L207.145 18.696C207.121 18.984 207.097 19.284 207.073 19.596C207.073 19.908 207.073 20.232 207.073 20.568C207.073 22.224 207.301 23.568 207.757 24.6C208.237 25.632 208.837 26.388 209.557 26.868C210.277 27.324 211.009 27.552 211.753 27.552C212.257 27.552 212.773 27.48 213.301 27.336C213.853 27.168 214.405 26.88 214.957 26.472C215.509 26.04 216.025 25.44 216.505 24.672L217.153 24.888C216.865 25.8 216.409 26.688 215.785 27.552C215.161 28.416 214.369 29.124 213.409 29.676C212.449 30.228 211.297 30.504 209.953 30.504C208.321 30.504 206.881 30.156 205.633 29.46C204.385 28.764 203.401 27.708 202.681 26.292C201.985 24.876 201.637 23.076 201.637 20.892C201.637 18.66 202.009 16.8 202.753 15.312C203.521 13.824 204.565 12.72 205.885 12C207.229 11.256 208.753 10.884 210.457 10.884Z" fill="#B2B2B2"/>
<path d="M223.989 2.1C224.997 2.1 225.789 2.352 226.365 2.856C226.965 3.336 227.265 4.008 227.265 4.872C227.265 5.736 226.965 6.42 226.365 6.924C225.789 7.404 224.997 7.644 223.989 7.644C222.981 7.644 222.177 7.404 221.577 6.924C221.001 6.42 220.713 5.736 220.713 4.872C220.713 4.008 221.001 3.336 221.577 2.856C222.177 2.352 222.981 2.1 223.989 2.1ZM226.797 10.992V26.652C226.797 27.66 226.965 28.344 227.301 28.704C227.661 29.064 228.261 29.244 229.101 29.244V30C228.669 29.976 227.997 29.952 227.085 29.928C226.173 29.88 225.249 29.856 224.313 29.856C223.377 29.856 222.429 29.88 221.469 29.928C220.509 29.952 219.789 29.976 219.309 30V29.244C220.149 29.244 220.737 29.064 221.073 28.704C221.433 28.344 221.613 27.66 221.613 26.652V15.312C221.613 14.232 221.445 13.44 221.109 12.936C220.797 12.408 220.197 12.144 219.309 12.144V11.388C220.077 11.46 220.821 11.496 221.541 11.496C222.549 11.496 223.485 11.46 224.349 11.388C225.237 11.292 226.053 11.16 226.797 10.992Z" fill="#B2B2B2"/>
<path d="M237.793 10.884C238.801 10.884 239.677 11.016 240.421 11.28C241.189 11.52 241.741 11.76 242.077 12C242.893 12.552 243.397 12.192 243.589 10.92H244.345C244.297 11.592 244.261 12.42 244.237 13.404C244.213 14.364 244.201 15.648 244.201 17.256H243.445C243.325 16.368 243.097 15.492 242.761 14.628C242.425 13.764 241.933 13.056 241.285 12.504C240.661 11.952 239.845 11.676 238.837 11.676C238.141 11.676 237.553 11.88 237.073 12.288C236.593 12.672 236.353 13.236 236.353 13.98C236.353 14.7 236.569 15.336 237.001 15.888C237.433 16.416 237.985 16.932 238.657 17.436C239.353 17.916 240.073 18.432 240.817 18.984C241.609 19.584 242.329 20.184 242.977 20.784C243.625 21.36 244.141 21.996 244.525 22.692C244.909 23.388 245.101 24.216 245.101 25.176C245.101 26.256 244.789 27.204 244.165 28.02C243.541 28.812 242.713 29.424 241.681 29.856C240.673 30.288 239.545 30.504 238.297 30.504C237.577 30.504 236.929 30.432 236.353 30.288C235.801 30.144 235.321 29.964 234.913 29.748C234.601 29.604 234.301 29.472 234.013 29.352C233.749 29.208 233.497 29.088 233.257 28.992C233.017 28.92 232.801 29.004 232.609 29.244C232.441 29.484 232.309 29.82 232.213 30.252H231.457C231.505 29.484 231.541 28.548 231.565 27.444C231.589 26.34 231.601 24.876 231.601 23.052H232.357C232.501 24.348 232.765 25.5 233.149 26.508C233.533 27.492 234.049 28.272 234.697 28.848C235.369 29.4 236.209 29.676 237.217 29.676C237.625 29.676 238.021 29.592 238.405 29.424C238.789 29.256 239.101 28.98 239.341 28.596C239.605 28.212 239.737 27.72 239.737 27.12C239.737 26.064 239.389 25.188 238.693 24.492C238.021 23.796 237.157 23.04 236.101 22.224C235.333 21.6 234.601 20.988 233.905 20.388C233.233 19.764 232.681 19.092 232.249 18.372C231.817 17.628 231.601 16.788 231.601 15.852C231.601 14.772 231.889 13.86 232.465 13.116C233.041 12.372 233.797 11.82 234.733 11.46C235.693 11.076 236.713 10.884 237.793 10.884Z" fill="#B2B2B2"/>
</svg>
