<svg width="187" height="21" viewBox="0 0 187 21" fill="none" xmlns="http://www.w3.org/2000/svg">
<path d="M4.68001 2.58C5.46667 2.58 6.07334 2.66667 6.50001 2.84C6.92667 3 7.29334 3.17333 7.60001 3.36C7.76001 3.45333 7.88667 3.52667 7.98001 3.58C8.08667 3.62 8.18667 3.64 8.28001 3.64C8.41334 3.64 8.50667 3.56667 8.56001 3.42C8.62667 3.27333 8.68001 3.05333 8.72001 2.76H9.18001C9.16667 3.01333 9.14667 3.32 9.12001 3.68C9.10667 4.02667 9.09334 4.48667 9.08001 5.06C9.08001 5.63333 9.08001 6.38667 9.08001 7.32H8.62001C8.56667 6.62667 8.40667 5.95333 8.14001 5.3C7.87334 4.64667 7.49334 4.11333 7.00001 3.7C6.52001 3.27333 5.92667 3.06 5.22001 3.06C4.58001 3.06 4.05334 3.24 3.64001 3.6C3.22667 3.96 3.02001 4.46 3.02001 5.1C3.02001 5.63333 3.15334 6.09333 3.42001 6.48C3.68667 6.85333 4.07334 7.22 4.58001 7.58C5.10001 7.94 5.72667 8.37333 6.46001 8.88C7.10001 9.29333 7.67334 9.70667 8.18001 10.12C8.68667 10.5333 9.09334 11 9.40001 11.52C9.70667 12.04 9.86001 12.66 9.86001 13.38C9.86001 14.26 9.62667 14.9867 9.16001 15.56C8.70667 16.1333 8.10667 16.5667 7.36001 16.86C6.61334 17.14 5.79334 17.28 4.90001 17.28C4.07334 17.28 3.41334 17.2 2.92001 17.04C2.42667 16.88 2.01334 16.7133 1.68001 16.54C1.38667 16.3533 1.16001 16.26 1.00001 16.26C0.866673 16.26 0.766673 16.3333 0.700006 16.48C0.646673 16.6267 0.600006 16.8467 0.560006 17.14H0.100006C0.126673 16.82 0.140006 16.4467 0.140006 16.02C0.153339 15.5933 0.160006 15.04 0.160006 14.36C0.173339 13.6667 0.180006 12.7933 0.180006 11.74H0.640006C0.693339 12.62 0.840006 13.4467 1.08001 14.22C1.33334 14.98 1.71334 15.5933 2.22001 16.06C2.74001 16.5267 3.42667 16.76 4.28001 16.76C4.74667 16.76 5.16001 16.68 5.52001 16.52C5.89334 16.3467 6.19334 16.0933 6.42001 15.76C6.64667 15.4267 6.76001 15.0133 6.76001 14.52C6.76001 13.96 6.62667 13.4733 6.36001 13.06C6.10667 12.6467 5.75334 12.26 5.30001 11.9C4.86001 11.54 4.34667 11.1733 3.76001 10.8C3.13334 10.3867 2.54667 9.97333 2.00001 9.56C1.45334 9.14667 1.01334 8.67333 0.680006 8.14C0.360006 7.60667 0.200006 6.97333 0.200006 6.24C0.200006 5.4 0.406673 4.71333 0.820006 4.18C1.24667 3.63333 1.80001 3.23333 2.48001 2.98C3.17334 2.71333 3.90667 2.58 4.68001 2.58Z" fill="#CCCCCC"/>
<path d="M16.3197 6.38C17.493 6.38 18.413 6.72667 19.0797 7.42C19.7464 8.11333 20.0797 9.24667 20.0797 10.82H13.4997L13.4597 10.44H17.5597C17.573 9.78667 17.533 9.18667 17.4397 8.64C17.3464 8.08 17.1997 7.63333 16.9997 7.3C16.7997 6.96667 16.533 6.8 16.1997 6.8C15.733 6.8 15.333 7.09333 14.9997 7.68C14.6797 8.26667 14.4864 9.24 14.4197 10.6L14.4797 10.72C14.4664 10.88 14.453 11.0467 14.4397 11.22C14.4397 11.3933 14.4397 11.5733 14.4397 11.76C14.4397 12.68 14.5664 13.4267 14.8197 14C15.0864 14.5733 15.4197 14.9933 15.8197 15.26C16.2197 15.5133 16.6264 15.64 17.0397 15.64C17.3197 15.64 17.6064 15.6 17.8997 15.52C18.2064 15.4267 18.513 15.2667 18.8197 15.04C19.1264 14.8 19.413 14.4667 19.6797 14.04L20.0397 14.16C19.8797 14.6667 19.6264 15.16 19.2797 15.64C18.933 16.12 18.493 16.5133 17.9597 16.82C17.4264 17.1267 16.7864 17.28 16.0397 17.28C15.133 17.28 14.333 17.0867 13.6397 16.7C12.9464 16.3133 12.3997 15.7267 11.9997 14.94C11.613 14.1533 11.4197 13.1533 11.4197 11.94C11.4197 10.7 11.6264 9.66667 12.0397 8.84C12.4664 8.01333 13.0464 7.4 13.7797 7C14.5264 6.58667 15.373 6.38 16.3197 6.38Z" fill="#CCCCCC"/>
<path d="M31.1978 6.44V14.82C31.1978 15.42 31.2912 15.8667 31.4778 16.16C31.6645 16.44 31.9978 16.58 32.4778 16.58V17C32.0645 16.96 31.6512 16.94 31.2378 16.94C30.6778 16.94 30.1578 16.96 29.6778 17C29.1978 17.04 28.7445 17.1133 28.3178 17.22V15.42C27.9978 16.0867 27.5512 16.5667 26.9778 16.86C26.4178 17.14 25.7912 17.28 25.0978 17.28C24.5378 17.28 24.0845 17.2067 23.7378 17.06C23.3912 16.9133 23.1178 16.7267 22.9178 16.5C22.6912 16.2467 22.5312 15.9133 22.4378 15.5C22.3445 15.0867 22.2978 14.5533 22.2978 13.9V8.84C22.2978 8.24 22.2045 7.8 22.0178 7.52C21.8445 7.22667 21.5112 7.08 21.0178 7.08V6.66C21.4445 6.7 21.8578 6.72 22.2578 6.72C22.8178 6.72 23.3378 6.7 23.8178 6.66C24.3112 6.60667 24.7645 6.53333 25.1778 6.44V14.72C25.1778 15.0533 25.2045 15.3467 25.2578 15.6C25.3245 15.8533 25.4445 16.0533 25.6178 16.2C25.7912 16.3333 26.0445 16.4 26.3778 16.4C26.7378 16.4 27.0578 16.3 27.3378 16.1C27.6312 15.9 27.8645 15.6267 28.0378 15.28C28.2245 14.92 28.3178 14.52 28.3178 14.08V8.84C28.3178 8.24 28.2245 7.8 28.0378 7.52C27.8645 7.22667 27.5312 7.08 27.0378 7.08V6.66C27.4645 6.7 27.8778 6.72 28.2778 6.72C28.8378 6.72 29.3578 6.7 29.8378 6.66C30.3312 6.60667 30.7845 6.53333 31.1978 6.44Z" fill="#CCCCCC"/>
<path d="M44.4147 2.84V3.24C43.988 3.25333 43.6614 3.30667 43.4347 3.4C43.2214 3.48 43.0814 3.64 43.0147 3.88C42.948 4.10667 42.9147 4.46667 42.9147 4.96V14.88C42.9147 15.36 42.948 15.72 43.0147 15.96C43.0947 16.2 43.2414 16.36 43.4547 16.44C43.668 16.52 43.988 16.5733 44.4147 16.6V17C44.0547 16.9733 43.6014 16.96 43.0547 16.96C42.508 16.9467 41.9547 16.94 41.3947 16.94C40.7414 16.94 40.1347 16.9467 39.5747 16.96C39.028 16.96 38.5814 16.9733 38.2347 17V16.6C38.6614 16.5733 38.9814 16.52 39.1947 16.44C39.408 16.36 39.548 16.2 39.6147 15.96C39.6947 15.72 39.7347 15.36 39.7347 14.88V4.96C39.7347 4.46667 39.6947 4.10667 39.6147 3.88C39.548 3.64 39.4014 3.48 39.1747 3.4C38.9614 3.30667 38.648 3.25333 38.2347 3.24V2.84C38.5814 2.85333 39.028 2.86667 39.5747 2.88C40.1347 2.89333 40.7414 2.9 41.3947 2.9C41.9547 2.9 42.508 2.89333 43.0547 2.88C43.6014 2.86667 44.0547 2.85333 44.4147 2.84Z" fill="#CCCCCC"/>
<path d="M52.8142 6.38C53.3742 6.38 53.8276 6.45333 54.1742 6.6C54.5209 6.73333 54.8009 6.92 55.0142 7.16C55.2276 7.41333 55.3809 7.74667 55.4742 8.16C55.5676 8.56 55.6142 9.09333 55.6142 9.76V15.14C55.6142 15.7 55.7009 16.08 55.8742 16.28C56.0476 16.48 56.3476 16.58 56.7742 16.58V17C56.5342 16.9867 56.1676 16.9733 55.6742 16.96C55.1942 16.9333 54.7209 16.92 54.2542 16.92C53.7742 16.92 53.3009 16.9333 52.8342 16.96C52.3676 16.9733 52.0142 16.9867 51.7742 17V16.58C52.1342 16.58 52.3809 16.48 52.5142 16.28C52.6609 16.08 52.7342 15.7 52.7342 15.14V8.92C52.7342 8.58667 52.7076 8.3 52.6542 8.06C52.6009 7.80667 52.4942 7.61333 52.3342 7.48C52.1876 7.33333 51.9609 7.26 51.6542 7.26C51.3076 7.26 50.9876 7.36 50.6942 7.56C50.4009 7.76 50.1609 8.04 49.9742 8.4C49.8009 8.74667 49.7142 9.14 49.7142 9.58V15.14C49.7142 15.7 49.7876 16.08 49.9342 16.28C50.0809 16.48 50.3276 16.58 50.6742 16.58V17C50.4609 16.9867 50.1276 16.9733 49.6742 16.96C49.2342 16.9333 48.7809 16.92 48.3142 16.92C47.8076 16.92 47.2876 16.9333 46.7542 16.96C46.2209 16.9733 45.8209 16.9867 45.5542 17V16.58C46.0209 16.58 46.3476 16.48 46.5342 16.28C46.7342 16.08 46.8342 15.7 46.8342 15.14V8.84C46.8342 8.24 46.7409 7.8 46.5542 7.52C46.3809 7.22667 46.0476 7.08 45.5542 7.08V6.66C45.9809 6.7 46.3942 6.72 46.7942 6.72C47.3542 6.72 47.8742 6.7 48.3542 6.66C48.8476 6.60667 49.3009 6.53333 49.7142 6.44V8.24C50.0342 7.57333 50.4676 7.1 51.0142 6.82C51.5609 6.52667 52.1609 6.38 52.8142 6.38ZM58.8342 6.38C59.3942 6.38 59.8476 6.45333 60.1942 6.6C60.5409 6.73333 60.8209 6.92 61.0342 7.16C61.2476 7.41333 61.4009 7.74667 61.4942 8.16C61.5876 8.56 61.6342 9.09333 61.6342 9.76V15.14C61.6342 15.7 61.7276 16.08 61.9142 16.28C62.1142 16.48 62.4476 16.58 62.9142 16.58V17C62.6609 16.9867 62.2809 16.9733 61.7742 16.96C61.2676 16.9333 60.7676 16.92 60.2742 16.92C59.7942 16.92 59.3209 16.9333 58.8542 16.96C58.3876 16.9733 58.0342 16.9867 57.7942 17V16.58C58.1542 16.58 58.4009 16.48 58.5342 16.28C58.6809 16.08 58.7542 15.7 58.7542 15.14V8.92C58.7542 8.58667 58.7209 8.3 58.6542 8.06C58.6009 7.80667 58.4876 7.61333 58.3142 7.48C58.1542 7.33333 57.9009 7.26 57.5542 7.26C57.2076 7.26 56.8876 7.36667 56.5942 7.58C56.3009 7.79333 56.0609 8.08 55.8742 8.44C55.7009 8.8 55.6076 9.2 55.5942 9.64L55.4942 8.42C55.8542 7.62 56.3276 7.08 56.9142 6.8C57.5142 6.52 58.1542 6.38 58.8342 6.38Z" fill="#CCCCCC"/>
<path d="M68.8197 6.38C69.793 6.38 70.6464 6.56 71.3797 6.92C72.113 7.28 72.6864 7.86 73.0997 8.66C73.513 9.46 73.7197 10.52 73.7197 11.84C73.7197 13.16 73.513 14.22 73.0997 15.02C72.6864 15.8067 72.113 16.38 71.3797 16.74C70.6464 17.1 69.793 17.28 68.8197 17.28C67.873 17.28 67.0264 17.1 66.2797 16.74C65.5464 16.38 64.9664 15.8067 64.5397 15.02C64.1264 14.22 63.9197 13.16 63.9197 11.84C63.9197 10.52 64.1264 9.46 64.5397 8.66C64.9664 7.86 65.5464 7.28 66.2797 6.92C67.0264 6.56 67.873 6.38 68.8197 6.38ZM68.8197 6.78C68.2864 6.78 67.8397 7.18 67.4797 7.98C67.1197 8.76667 66.9397 10.0533 66.9397 11.84C66.9397 13.6267 67.1197 14.9133 67.4797 15.7C67.8397 16.4867 68.2864 16.88 68.8197 16.88C69.3664 16.88 69.813 16.4867 70.1597 15.7C70.5197 14.9133 70.6997 13.6267 70.6997 11.84C70.6997 10.0533 70.5197 8.76667 70.1597 7.98C69.813 7.18 69.3664 6.78 68.8197 6.78ZM71.0397 0.66C71.2664 0.833333 71.3864 1.07333 71.3997 1.38C71.413 1.68667 71.313 1.97333 71.0997 2.24C70.8864 2.50667 70.6264 2.74667 70.3197 2.96C70.013 3.17333 69.6464 3.43333 69.2197 3.74C68.8064 4.04667 68.3064 4.47333 67.7197 5.02L67.4997 4.84C67.8997 4.12 68.193 3.52 68.3797 3.04C68.5664 2.54667 68.7264 2.12667 68.8597 1.78C68.993 1.43333 69.173 1.13333 69.3997 0.879999C69.5997 0.613333 69.8597 0.46 70.1797 0.419999C70.513 0.366666 70.7997 0.446666 71.0397 0.66Z" fill="#CCCCCC"/>
<path d="M84.3744 6.66V7.06C84.121 7.12667 83.881 7.28667 83.6544 7.54C83.4277 7.78 83.2077 8.19333 82.9944 8.78L80.0744 17.04C79.861 17.0267 79.641 17.02 79.4144 17.02C79.201 17.02 78.9877 17.0267 78.7744 17.04L75.2144 8.2C75.001 7.68 74.7877 7.36667 74.5744 7.26C74.3744 7.14 74.201 7.08 74.0544 7.08V6.66C74.481 6.68667 74.921 6.71333 75.3744 6.74C75.841 6.75333 76.3477 6.76 76.8944 6.76C77.3077 6.76 77.741 6.75333 78.1944 6.74C78.661 6.71333 79.0944 6.68667 79.4944 6.66V7.08C79.2144 7.08 78.961 7.09333 78.7344 7.12C78.521 7.14667 78.3744 7.23333 78.2944 7.38C78.2144 7.52667 78.2277 7.78667 78.3344 8.16L80.6744 14.36L80.4744 14.64L82.0544 10.26C82.3077 9.54 82.4144 8.95333 82.3744 8.5C82.3344 8.03333 82.1877 7.68667 81.9344 7.46C81.681 7.22 81.341 7.08667 80.9144 7.06V6.66C81.1144 6.67333 81.3277 6.68667 81.5544 6.7C81.7944 6.7 82.021 6.70667 82.2344 6.72C82.461 6.72 82.661 6.72 82.8344 6.72C83.101 6.72 83.3811 6.71333 83.6744 6.7C83.9677 6.68667 84.201 6.67333 84.3744 6.66Z" fill="#CCCCCC"/>
<path d="M89.7377 6.38C90.911 6.38 91.831 6.72667 92.4977 7.42C93.1643 8.11333 93.4977 9.24667 93.4977 10.82H86.9177L86.8777 10.44H90.9777C90.991 9.78667 90.951 9.18667 90.8577 8.64C90.7643 8.08 90.6177 7.63333 90.4177 7.3C90.2177 6.96667 89.951 6.8 89.6177 6.8C89.151 6.8 88.751 7.09333 88.4177 7.68C88.0977 8.26667 87.9043 9.24 87.8377 10.6L87.8977 10.72C87.8843 10.88 87.871 11.0467 87.8577 11.22C87.8577 11.3933 87.8577 11.5733 87.8577 11.76C87.8577 12.68 87.9843 13.4267 88.2377 14C88.5043 14.5733 88.8377 14.9933 89.2377 15.26C89.6377 15.5133 90.0443 15.64 90.4577 15.64C90.7377 15.64 91.0243 15.6 91.3177 15.52C91.6243 15.4267 91.931 15.2667 92.2377 15.04C92.5443 14.8 92.831 14.4667 93.0977 14.04L93.4577 14.16C93.2977 14.6667 93.0443 15.16 92.6977 15.64C92.351 16.12 91.911 16.5133 91.3777 16.82C90.8443 17.1267 90.2043 17.28 89.4577 17.28C88.551 17.28 87.751 17.0867 87.0577 16.7C86.3643 16.3133 85.8177 15.7267 85.4177 14.94C85.031 14.1533 84.8377 13.1533 84.8377 11.94C84.8377 10.7 85.0443 9.66667 85.4577 8.84C85.8843 8.01333 86.4643 7.4 87.1977 7C87.9443 6.58667 88.791 6.38 89.7377 6.38Z" fill="#CCCCCC"/>
<path d="M98.7358 1.34V15.14C98.7358 15.7 98.8291 16.08 99.0158 16.28C99.2158 16.48 99.5491 16.58 100.016 16.58V17C99.7625 16.9867 99.3825 16.9733 98.8758 16.96C98.3691 16.9333 97.8558 16.92 97.3358 16.92C96.8158 16.92 96.2891 16.9333 95.7558 16.96C95.2358 16.9733 94.8425 16.9867 94.5758 17V16.58C95.0425 16.58 95.3691 16.48 95.5558 16.28C95.7558 16.08 95.8558 15.7 95.8558 15.14V3.74C95.8558 3.14 95.7625 2.7 95.5758 2.42C95.4025 2.12667 95.0691 1.98 94.5758 1.98V1.56C95.0025 1.6 95.4158 1.62 95.8158 1.62C96.3625 1.62 96.8825 1.6 97.3758 1.56C97.8691 1.50667 98.3225 1.43333 98.7358 1.34Z" fill="#CCCCCC"/>
<path d="M110.695 6.38C111.868 6.38 112.788 6.72667 113.455 7.42C114.121 8.11333 114.455 9.24667 114.455 10.82H107.875L107.835 10.44H111.935C111.948 9.78667 111.908 9.18667 111.815 8.64C111.721 8.08 111.575 7.63333 111.375 7.3C111.175 6.96667 110.908 6.8 110.575 6.8C110.108 6.8 109.708 7.09333 109.375 7.68C109.055 8.26667 108.861 9.24 108.795 10.6L108.855 10.72C108.841 10.88 108.828 11.0467 108.815 11.22C108.815 11.3933 108.815 11.5733 108.815 11.76C108.815 12.68 108.941 13.4267 109.195 14C109.461 14.5733 109.795 14.9933 110.195 15.26C110.595 15.5133 111.001 15.64 111.415 15.64C111.695 15.64 111.981 15.6 112.275 15.52C112.581 15.4267 112.888 15.2667 113.195 15.04C113.501 14.8 113.788 14.4667 114.055 14.04L114.415 14.16C114.255 14.6667 114.001 15.16 113.655 15.64C113.308 16.12 112.868 16.5133 112.335 16.82C111.801 17.1267 111.161 17.28 110.415 17.28C109.508 17.28 108.708 17.0867 108.015 16.7C107.321 16.3133 106.775 15.7267 106.375 14.94C105.988 14.1533 105.795 13.1533 105.795 11.94C105.795 10.7 106.001 9.66667 106.415 8.84C106.841 8.01333 107.421 7.4 108.155 7C108.901 6.58667 109.748 6.38 110.695 6.38Z" fill="#CCCCCC"/>
<path d="M119.573 6.38C120.133 6.38 120.619 6.45333 121.033 6.6C121.459 6.73333 121.766 6.86667 121.953 7C122.406 7.30667 122.686 7.10667 122.793 6.4H123.213C123.186 6.77333 123.166 7.23333 123.153 7.78C123.139 8.31333 123.133 9.02667 123.133 9.92H122.713C122.646 9.42667 122.519 8.94 122.333 8.46C122.146 7.98 121.873 7.58667 121.513 7.28C121.166 6.97333 120.713 6.82 120.153 6.82C119.766 6.82 119.439 6.93333 119.173 7.16C118.906 7.37333 118.773 7.68667 118.773 8.1C118.773 8.5 118.893 8.85333 119.133 9.16C119.373 9.45333 119.679 9.74 120.053 10.02C120.439 10.2867 120.839 10.5733 121.253 10.88C121.693 11.2133 122.093 11.5467 122.453 11.88C122.813 12.2 123.099 12.5533 123.313 12.94C123.526 13.3267 123.633 13.7867 123.633 14.32C123.633 14.92 123.459 15.4467 123.113 15.9C122.766 16.34 122.306 16.68 121.733 16.92C121.173 17.16 120.546 17.28 119.853 17.28C119.453 17.28 119.093 17.24 118.773 17.16C118.466 17.08 118.199 16.98 117.973 16.86C117.799 16.78 117.633 16.7067 117.473 16.64C117.326 16.56 117.186 16.4933 117.053 16.44C116.919 16.4 116.799 16.4467 116.693 16.58C116.599 16.7133 116.526 16.9 116.473 17.14H116.053C116.079 16.7133 116.099 16.1933 116.113 15.58C116.126 14.9667 116.133 14.1533 116.133 13.14H116.553C116.633 13.86 116.779 14.5 116.993 15.06C117.206 15.6067 117.493 16.04 117.853 16.36C118.226 16.6667 118.693 16.82 119.253 16.82C119.479 16.82 119.699 16.7733 119.913 16.68C120.126 16.5867 120.299 16.4333 120.433 16.22C120.579 16.0067 120.653 15.7333 120.653 15.4C120.653 14.8133 120.459 14.3267 120.073 13.94C119.699 13.5533 119.219 13.1333 118.633 12.68C118.206 12.3333 117.799 11.9933 117.413 11.66C117.039 11.3133 116.733 10.94 116.493 10.54C116.253 10.1267 116.133 9.66 116.133 9.14C116.133 8.54 116.293 8.03333 116.613 7.62C116.933 7.20667 117.353 6.9 117.873 6.7C118.406 6.48667 118.973 6.38 119.573 6.38Z" fill="#CCCCCC"/>
<path d="M128.911 3.38V6.66H131.271V7.06H128.911V15.14C128.911 15.54 128.984 15.8267 129.131 16C129.278 16.16 129.498 16.24 129.791 16.24C130.031 16.24 130.271 16.1533 130.511 15.98C130.751 15.7933 130.964 15.48 131.151 15.04L131.491 15.22C131.278 15.82 130.951 16.3133 130.511 16.7C130.084 17.0867 129.498 17.28 128.751 17.28C128.311 17.28 127.924 17.22 127.591 17.1C127.258 16.9933 126.978 16.8267 126.751 16.6C126.458 16.3067 126.264 15.9467 126.171 15.52C126.078 15.08 126.031 14.5133 126.031 13.82V7.06H124.351V6.66H126.031V4.02C126.591 4.02 127.104 3.97333 127.571 3.88C128.051 3.77333 128.498 3.60667 128.911 3.38Z" fill="#CCCCCC"/>
<path d="M134.642 17.14C134.042 17.14 133.542 17.0267 133.142 16.8C132.742 16.5733 132.449 16.2733 132.262 15.9C132.076 15.5133 131.982 15.0933 131.982 14.64C131.982 14.0667 132.109 13.6 132.362 13.24C132.629 12.88 132.969 12.5867 133.382 12.36C133.796 12.1333 134.229 11.9467 134.682 11.8C135.149 11.6533 135.589 11.5133 136.002 11.38C136.429 11.2333 136.769 11.0667 137.022 10.88C137.289 10.68 137.422 10.4267 137.422 10.12V8.56C137.422 8.21333 137.362 7.90667 137.242 7.64C137.136 7.36 136.962 7.14667 136.722 7C136.496 6.85333 136.196 6.78 135.822 6.78C135.556 6.78 135.289 6.82 135.022 6.9C134.756 6.96667 134.536 7.08667 134.362 7.26C134.736 7.39333 135.022 7.6 135.222 7.88C135.436 8.14667 135.542 8.45333 135.542 8.8C135.542 9.25333 135.382 9.61333 135.062 9.88C134.756 10.1467 134.389 10.28 133.962 10.28C133.482 10.28 133.116 10.1333 132.862 9.84C132.622 9.53333 132.502 9.16667 132.502 8.74C132.502 8.35333 132.596 8.03333 132.782 7.78C132.982 7.52667 133.256 7.28667 133.602 7.06C133.976 6.84667 134.422 6.68 134.942 6.56C135.476 6.44 136.049 6.38 136.662 6.38C137.276 6.38 137.829 6.44667 138.322 6.58C138.816 6.7 139.229 6.92667 139.562 7.26C139.869 7.56667 140.069 7.94667 140.162 8.4C140.256 8.84 140.302 9.4 140.302 10.08V15.52C140.302 15.8533 140.336 16.0867 140.402 16.22C140.469 16.34 140.582 16.4 140.742 16.4C140.862 16.4 140.976 16.3667 141.082 16.3C141.202 16.2333 141.329 16.1533 141.462 16.06L141.662 16.4C141.382 16.64 141.056 16.8267 140.682 16.96C140.322 17.08 139.916 17.14 139.462 17.14C138.969 17.14 138.576 17.0733 138.282 16.94C137.989 16.7933 137.776 16.6 137.642 16.36C137.522 16.12 137.462 15.84 137.462 15.52C137.142 16.0267 136.756 16.4267 136.302 16.72C135.849 17 135.296 17.14 134.642 17.14ZM136.062 15.86C136.329 15.86 136.569 15.8 136.782 15.68C137.009 15.5467 137.222 15.3333 137.422 15.04V10.94C137.302 11.14 137.136 11.32 136.922 11.48C136.709 11.64 136.482 11.8067 136.242 11.98C136.002 12.14 135.769 12.32 135.542 12.52C135.329 12.72 135.156 12.9667 135.022 13.26C134.889 13.5533 134.822 13.9067 134.822 14.32C134.822 14.84 134.936 15.2267 135.162 15.48C135.389 15.7333 135.689 15.86 136.062 15.86ZM138.782 0.66C139.009 0.833333 139.129 1.07333 139.142 1.38C139.156 1.68667 139.056 1.97333 138.842 2.24C138.629 2.50667 138.369 2.74667 138.062 2.96C137.756 3.17333 137.389 3.43333 136.962 3.74C136.549 4.04667 136.049 4.47333 135.462 5.02L135.242 4.84C135.642 4.12 135.936 3.52 136.122 3.04C136.309 2.54667 136.469 2.12667 136.602 1.78C136.736 1.43333 136.916 1.13333 137.142 0.879999C137.342 0.613333 137.602 0.46 137.922 0.419999C138.256 0.366666 138.542 0.446666 138.782 0.66Z" fill="#CCCCCC"/>
<path d="M149.564 17.14C148.964 17.14 148.464 17.0267 148.064 16.8C147.664 16.5733 147.371 16.2733 147.184 15.9C146.998 15.5133 146.904 15.0933 146.904 14.64C146.904 14.0667 147.031 13.6 147.284 13.24C147.551 12.88 147.891 12.5867 148.304 12.36C148.718 12.1333 149.151 11.9467 149.604 11.8C150.071 11.6533 150.511 11.5133 150.924 11.38C151.351 11.2333 151.691 11.0667 151.944 10.88C152.211 10.68 152.344 10.4267 152.344 10.12V8.56C152.344 8.21333 152.284 7.90667 152.164 7.64C152.058 7.36 151.884 7.14667 151.644 7C151.418 6.85333 151.118 6.78 150.744 6.78C150.478 6.78 150.211 6.82 149.944 6.9C149.678 6.96667 149.458 7.08667 149.284 7.26C149.658 7.39333 149.944 7.6 150.144 7.88C150.358 8.14667 150.464 8.45333 150.464 8.8C150.464 9.25333 150.304 9.61333 149.984 9.88C149.678 10.1467 149.311 10.28 148.884 10.28C148.404 10.28 148.038 10.1333 147.784 9.84C147.544 9.53333 147.424 9.16667 147.424 8.74C147.424 8.35333 147.518 8.03333 147.704 7.78C147.904 7.52667 148.178 7.28667 148.524 7.06C148.898 6.84667 149.344 6.68 149.864 6.56C150.398 6.44 150.971 6.38 151.584 6.38C152.198 6.38 152.751 6.44667 153.244 6.58C153.738 6.7 154.151 6.92667 154.484 7.26C154.791 7.56667 154.991 7.94667 155.084 8.4C155.178 8.84 155.224 9.4 155.224 10.08V15.52C155.224 15.8533 155.258 16.0867 155.324 16.22C155.391 16.34 155.504 16.4 155.664 16.4C155.784 16.4 155.898 16.3667 156.004 16.3C156.124 16.2333 156.251 16.1533 156.384 16.06L156.584 16.4C156.304 16.64 155.978 16.8267 155.604 16.96C155.244 17.08 154.838 17.14 154.384 17.14C153.891 17.14 153.498 17.0733 153.204 16.94C152.911 16.7933 152.698 16.6 152.564 16.36C152.444 16.12 152.384 15.84 152.384 15.52C152.064 16.0267 151.678 16.4267 151.224 16.72C150.771 17 150.218 17.14 149.564 17.14ZM150.984 15.86C151.251 15.86 151.491 15.8 151.704 15.68C151.931 15.5467 152.144 15.3333 152.344 15.04V10.94C152.224 11.14 152.058 11.32 151.844 11.48C151.631 11.64 151.404 11.8067 151.164 11.98C150.924 12.14 150.691 12.32 150.464 12.52C150.251 12.72 150.078 12.9667 149.944 13.26C149.811 13.5533 149.744 13.9067 149.744 14.32C149.744 14.84 149.858 15.2267 150.084 15.48C150.311 15.7333 150.611 15.86 150.984 15.86Z" fill="#CCCCCC"/>
<path d="M161.796 6.38C162.422 6.38 162.962 6.46667 163.416 6.64C163.869 6.8 164.262 7.10667 164.596 7.56L164.296 7.66C164.096 7.35333 163.842 7.13333 163.536 7C163.229 6.86667 162.902 6.8 162.556 6.8C161.862 6.8 161.336 7.21333 160.976 8.04C160.616 8.86667 160.436 10.1267 160.436 11.82C160.436 12.9533 160.516 13.86 160.676 14.54C160.836 15.2067 161.056 15.6867 161.336 15.98C161.629 16.2733 161.969 16.42 162.356 16.42C162.796 16.42 163.196 16.2267 163.556 15.84C163.929 15.4533 164.129 14.9267 164.156 14.26L164.256 14.96C164.056 15.72 163.722 16.3 163.256 16.7C162.789 17.0867 162.209 17.28 161.516 17.28C160.756 17.28 160.062 17.0867 159.436 16.7C158.822 16.3133 158.329 15.72 157.956 14.92C157.596 14.1067 157.416 13.06 157.416 11.78C157.416 10.5667 157.602 9.56667 157.976 8.78C158.349 7.98 158.862 7.38 159.516 6.98C160.182 6.58 160.942 6.38 161.796 6.38ZM166.816 6.34L167.116 6.5C167.062 6.67333 167.022 6.86 166.996 7.06C166.982 7.24667 166.976 7.44 166.976 7.64V18.84C166.976 19.3733 167.062 19.7333 167.236 19.92C167.422 20.1067 167.736 20.2 168.176 20.2V20.62C167.936 20.6067 167.582 20.5867 167.116 20.56C166.649 20.5467 166.162 20.54 165.656 20.54C164.989 20.54 164.349 20.5467 163.736 20.56C163.122 20.5867 162.642 20.6067 162.296 20.62V20.2C162.869 20.2 163.309 20.0933 163.616 19.88C163.936 19.68 164.096 19.2667 164.096 18.64V7.18C164.442 7.20667 164.789 7.18667 165.136 7.12C165.482 7.05333 165.802 6.95333 166.096 6.82C166.402 6.67333 166.642 6.51333 166.816 6.34Z" fill="#CCCCCC"/>
<path d="M178.815 6.44V14.82C178.815 15.42 178.908 15.8667 179.095 16.16C179.282 16.44 179.615 16.58 180.095 16.58V17C179.682 16.96 179.268 16.94 178.855 16.94C178.295 16.94 177.775 16.96 177.295 17C176.815 17.04 176.362 17.1133 175.935 17.22V15.42C175.615 16.0867 175.168 16.5667 174.595 16.86C174.035 17.14 173.408 17.28 172.715 17.28C172.155 17.28 171.702 17.2067 171.355 17.06C171.008 16.9133 170.735 16.7267 170.535 16.5C170.308 16.2467 170.148 15.9133 170.055 15.5C169.962 15.0867 169.915 14.5533 169.915 13.9V8.84C169.915 8.24 169.822 7.8 169.635 7.52C169.462 7.22667 169.128 7.08 168.635 7.08V6.66C169.062 6.7 169.475 6.72 169.875 6.72C170.435 6.72 170.955 6.7 171.435 6.66C171.928 6.60667 172.382 6.53333 172.795 6.44V14.72C172.795 15.0533 172.822 15.3467 172.875 15.6C172.942 15.8533 173.062 16.0533 173.235 16.2C173.408 16.3333 173.662 16.4 173.995 16.4C174.355 16.4 174.675 16.3 174.955 16.1C175.248 15.9 175.482 15.6267 175.655 15.28C175.842 14.92 175.935 14.52 175.935 14.08V8.84C175.935 8.24 175.842 7.8 175.655 7.52C175.482 7.22667 175.148 7.08 174.655 7.08V6.66C175.082 6.7 175.495 6.72 175.895 6.72C176.455 6.72 176.975 6.7 177.455 6.66C177.948 6.60667 178.402 6.53333 178.815 6.44Z" fill="#CCCCCC"/>
<path d="M183.584 1.5C184.144 1.5 184.584 1.64 184.904 1.92C185.237 2.18667 185.404 2.56 185.404 3.04C185.404 3.52 185.237 3.9 184.904 4.18C184.584 4.44667 184.144 4.58 183.584 4.58C183.024 4.58 182.577 4.44667 182.244 4.18C181.924 3.9 181.764 3.52 181.764 3.04C181.764 2.56 181.924 2.18667 182.244 1.92C182.577 1.64 183.024 1.5 183.584 1.5ZM185.144 6.44V15.14C185.144 15.7 185.237 16.08 185.424 16.28C185.624 16.48 185.957 16.58 186.424 16.58V17C186.184 16.9867 185.811 16.9733 185.304 16.96C184.797 16.9333 184.284 16.92 183.764 16.92C183.244 16.92 182.717 16.9333 182.184 16.96C181.651 16.9733 181.251 16.9867 180.984 17V16.58C181.451 16.58 181.777 16.48 181.964 16.28C182.164 16.08 182.264 15.7 182.264 15.14V8.84C182.264 8.24 182.171 7.8 181.984 7.52C181.811 7.22667 181.477 7.08 180.984 7.08V6.66C181.411 6.7 181.824 6.72 182.224 6.72C182.784 6.72 183.304 6.7 183.784 6.66C184.277 6.60667 184.731 6.53333 185.144 6.44Z" fill="#CCCCCC"/>
</svg>
